<svg xmlns="http://www.w3.org/2000/svg" xmlns:xlink="http://www.w3.org/1999/xlink" fill="none" version="1.1" width="500" height="500" viewBox="0 0 500 500"><defs><linearGradient x1="0" y1="1" x2="1" y2="0" id="master_svg0_3_3107"><stop offset="0%" stop-color="#141414" stop-opacity="1"/><stop offset="100%" stop-color="#0D1423" stop-opacity="1"/></linearGradient><mask id="master_svg1_1_0" style="mask-type:alpha" maskUnits="objectBoundingBox"><g><rect x="0" y="0" width="500" height="500" rx="25" fill="#FFFFFF" fill-opacity="1"/></g></mask><linearGradient x1="0" y1="0.5" x2="1" y2="0.5" id="master_svg2_3_3297"><stop offset="0%" stop-color="#1D252A" stop-opacity="0.25"/><stop offset="100%" stop-color="#1D252A" stop-opacity="0"/></linearGradient><linearGradient x1="0" y1="0.5" x2="1" y2="0.5" id="master_svg3_3_3297"><stop offset="0%" stop-color="#1D252A" stop-opacity="0.25"/><stop offset="100%" stop-color="#1D252A" stop-opacity="0"/></linearGradient></defs><g><g mask="url(#master_svg1_1_0)"><g><rect x="0" y="0" width="500" height="500" rx="25" fill="url(#master_svg0_3_3107)" fill-opacity="1"/></g><g transform="matrix(0.7071067690849304,-0.7071067690849304,0.7071067690849304,0.7071067690849304,-291.070410273981,297.84866007754044)"><path d="M213.9999237060547,500.27740478515625L299.0615237060547,585.3390047851562L535.3149237060547,585.3391047851562L620.2719237060546,500.38189678515624L213.9999237060547,500.27740478515625Z" fill="url(#master_svg2_3_3297)" fill-opacity="1"/></g><g transform="matrix(0.7071067690849304,-0.7071067690849304,0.7071067690849304,0.7071067690849304,-144.5113942129899,10.070047600769385)"><path d="M-60.10007858276367,264.5373080078125L279.4529214172363,264.5043080078125L194.5279214172363,179.5800480078125L24.961521417236327,179.4757080078125L-60.10007858276367,264.5373080078125Z" fill="url(#master_svg3_3_3297)" fill-opacity="1"/></g></g><g><ellipse cx="250" cy="213" rx="90.5" ry="90.5" fill-opacity="0" stroke-opacity="1" stroke="#E6B30B" fill="none" stroke-width="5"/></g><g><ellipse cx="250" cy="212" rx="122.5" ry="122.5" fill-opacity="0" stroke-opacity="1" stroke="#E6B30B" fill="none" stroke-width="5"/></g><g><path d="M358.486,240.459Q358.225,241.482,357.945,242.499L348.304,239.843Q348.55899999999997,238.916,348.797,237.984L358.486,240.459ZM348.145,266.7Q347.64300000000003,267.616,347.125,268.523L338.443,263.56100000000004Q338.916,262.73400000000004,339.373,261.898L348.145,266.7ZM331.596,289.563Q330.878,290.331,330.145,291.08500000000004L322.973,284.116Q323.64099999999996,283.428,324.296,282.72900000000004L331.596,289.563ZM309.845,307.594Q308.95799999999997,308.15700000000004,308.06,308.704L302.85900000000004,300.16200000000003Q303.676,299.66499999999996,304.485,299.152L309.845,307.594ZM284.303,319.59299999999996Q283.313,319.914,282.317,320.21500000000003L279.419,310.644Q280.327,310.369,281.228,310.078L284.303,319.59299999999996ZM256.452,324.813Q255.421,324.873,254.389,324.914L253.995,314.921Q254.935,314.884,255.873,314.83000000000004L256.452,324.813ZM228.4503,322.898Q227.4307,322.697,226.4158,322.478L228.53019999999998,312.704Q229.4554,312.904,230.38299999999998,313.086L228.4503,322.898ZM201.6968,314Q200.7473,313.544,199.8077,313.071L204.3049,304.139Q205.1617,304.57,206.0254,304.985L201.6968,314ZM178.0101,298.682Q177.2066,298.005,176.416,297.313L183.0025,289.788Q183.723,290.419,184.4546,291.03499999999997L178.0101,298.682ZM158.8503,277.873Q158.2452,277.022,157.6559,276.159L165.9126,270.51800000000003Q166.4496,271.304,167.0009,272.079L158.8503,277.873ZM145.52361,253.037Q145.14518,252.053,144.78522,251.062L154.1843,247.648Q154.5124,248.551,154.8573,249.448L145.52361,253.037ZM138.75232,225.518Q138.63087,224.47,138.52895,223.421L148.48212,222.454Q148.57504,223.411,148.68576,224.36599999999999L138.75232,225.518ZM138.9883,197.58780000000002Q139.12918,196.52960000000002,139.29003,195.4743L149.17585,196.9812Q149.02925,197.94299999999998,148.90083,198.9075L138.9883,197.58780000000002ZM146.21486,170.2092Q146.60464,169.2441,147.01213,168.2865L156.2138,172.2018Q155.8424,173.0745,155.4872,173.95409999999998L146.21486,170.2092ZM159.9535,145.6021Q160.5745,144.7588,161.211,143.9273L169.1517,150.00560000000002Q168.5717,150.76319999999998,168.006,151.5315L159.9535,145.6021ZM179.4649,125.1127Q180.2781,124.4505,181.1037,123.8034L187.2722,131.6743Q186.5204,132.2634,185.77949999999998,132.8668L179.4649,125.1127ZM203.4061,110.19732Q204.3567,109.76055,205.3151,109.34165L209.31990000000002,118.5047Q208.4471,118.8862,207.5815,119.2839L203.4061,110.19732ZM230.30970000000002,101.75222Q231.3697,101.56206,232.4331,101.39243L234.0084,111.26757Q233.0403,111.42201,232.0753,111.5951L230.30970000000002,101.75222ZM258.318,100.3107Q259.36199999999997,100.38876,260.404,100.4864L259.471,110.44278Q258.522,110.3539,257.572,110.28283L258.318,100.3107ZM286.089,106.00016Q287.082,106.33986,288.06899999999996,106.69808L284.656,116.0978Q283.75800000000004,115.7716,282.853,115.4624L286.089,106.00016ZM311.43399999999997,118.4344Q312.304,119.0078,313.163,119.597L307.507,127.8434Q306.724,127.3066,305.932,126.7846L311.43399999999997,118.4344ZM332.878,136.8291Q333.58299999999997,137.60840000000002,334.274,138.401L326.735,144.9709Q326.106,144.249,325.46299999999997,143.5391L332.878,136.8291ZM349.03200000000004,159.9531Q349.52,160.8804,349.99,161.817L341.055,166.3065Q340.626,165.453,340.18100000000004,164.60750000000002L349.03200000000004,159.9531ZM358.93899999999996,186.3765Q359.18,187.3938,359.403,188.41469999999998L349.63300000000004,190.5464Q349.43,189.6154,349.21000000000004,188.68869999999998L358.93899999999996,186.3765ZM362,212.5Q362,213.51600000000002,361.98199999999997,214.53199999999998L351.983,214.352Q352,213.426,352,212.5L362,212.5Z" fill="#E6B30B" fill-opacity="1"/></g><g transform="matrix(0.7071068286895752,0.7071070075035095,-0.7071070075035095,0.7071068286895752,229.74877906486563,-154.66259089927917)"><g><path d="M319.199562373352,200.00001525878906L329.40806237335204,220.18971525878905L308.991122373352,220.18971525878905L319.199562373352,200.00001525878906Z" fill="#715A00" fill-opacity="1"/><path d="M337.53906237335207,225.18971525878905L323.66166237335204,197.74387525878907L319.199562373352,188.91911525878908L300.86016237335207,225.18971525878905L337.53906237335207,225.18971525878905ZM316.39820237335204,205.54045525878905L311.51926237335203,215.18971525878905L308.991122373352,220.18971525878905L329.40806237335204,220.18971525878905L326.87996237335204,215.18971525878905L319.199562373352,200.00001525878906L316.39820237335204,205.54045525878905Z" fill-rule="evenodd" fill="#8F7408" fill-opacity="1"/></g><g><path d="M323.2104740142822,265.8076582519531L323.2104740142822,280.00005825195313L337.5685740142822,269.76835825195315L337.5685740142822,255.57595825195312L323.2104740142822,265.8076582519531Z" fill="#715A00" fill-opacity="1"/><path d="M318.2104740142822,263.23105825195313L318.2104740142822,289.7027582519531L342.5685740142822,272.34495825195313L342.5685740142822,245.87325825195313L318.2104740142822,263.23105825195313ZM323.2104740142822,280.00005825195313L323.2104740142822,265.8076582519531L332.5685440142822,259.1390082519531L337.5685740142822,255.57595825195312L337.5685740142822,269.76835825195315L323.2104740142822,280.00005825195313Z" fill-rule="evenodd" fill="#8F7408" fill-opacity="1"/></g><g transform="matrix(-1,0,0,1,631.8532180786133,0)"><path d="M315.92660903930664,265.8076582519531L315.92660903930664,280.00005825195313L330.2847090393066,269.76835825195315L330.2847090393066,255.57595825195312L315.92660903930664,265.8076582519531Z" fill="#715A00" fill-opacity="1"/><path d="M310.92660903930664,263.23105825195313L310.92660903930664,289.7027582519531L335.2847090393066,272.34495825195313L335.2847090393066,245.87325825195313L310.92660903930664,263.23105825195313ZM315.92660903930664,280.00005825195313L315.92660903930664,265.8076582519531L325.28467903930664,259.1390082519531L330.2847090393066,255.57595825195312L330.2847090393066,269.76835825195315L315.92660903930664,280.00005825195313Z" fill-rule="evenodd" fill="#8F7408" fill-opacity="1"/></g><g><path d="M323.2104740142822,243.13852220458983L323.2104740142822,257.33092220458985L337.5685740142822,247.09922220458984L337.5685740142822,232.90682220458984L323.2104740142822,243.13852220458983Z" fill="#715A00" fill-opacity="1"/><path d="M318.2104740142822,240.56192220458985L318.2104740142822,267.03362220458985L342.5685740142822,249.67582220458985L342.5685740142822,223.20412220458985L318.2104740142822,240.56192220458985ZM323.2104740142822,257.33092220458985L323.2104740142822,243.13852220458983L332.5685440142822,236.46987220458985L337.5685740142822,232.90682220458984L337.5685740142822,247.09922220458984L323.2104740142822,257.33092220458985Z" fill-rule="evenodd" fill="#8F7408" fill-opacity="1"/></g><g transform="matrix(-1,0,0,1,631.8532180786133,0)"><path d="M315.92660903930664,243.13852220458983L315.92660903930664,257.33092220458985L330.2847090393066,247.09922220458984L330.2847090393066,232.90682220458984L315.92660903930664,243.13852220458983Z" fill="#715A00" fill-opacity="1"/><path d="M310.92660903930664,240.56192220458985L310.92660903930664,267.03362220458985L335.2847090393066,249.67582220458985L335.2847090393066,223.20412220458985L310.92660903930664,240.56192220458985ZM315.92660903930664,257.33092220458985L315.92660903930664,243.13852220458983L325.28467903930664,236.46987220458985L330.2847090393066,232.90682220458984L330.2847090393066,247.09922220458984L315.92660903930664,257.33092220458985Z" fill-rule="evenodd" fill="#8F7408" fill-opacity="1"/></g><g><path d="M323.2104740142822,220.4693890182495L323.2104740142822,234.66178901824952L337.5685740142822,224.4300890182495L337.5685740142822,210.2376890182495L323.2104740142822,220.4693890182495Z" fill="#715A00" fill-opacity="1"/><path d="M318.2104740142822,217.89278901824952L318.2104740142822,244.36448901824951L342.5685740142822,227.00668901824952L342.5685740142822,200.53498901824952L318.2104740142822,217.89278901824952ZM323.2104740142822,234.66178901824952L323.2104740142822,220.4693890182495L332.5685440142822,213.80073901824952L337.5685740142822,210.2376890182495L337.5685740142822,224.4300890182495L323.2104740142822,234.66178901824952Z" fill-rule="evenodd" fill="#8F7408" fill-opacity="1"/></g><g transform="matrix(-1,0,0,1,631.8532180786133,0)"><path d="M315.92660903930664,220.4693890182495L315.92660903930664,234.66178901824952L330.2847090393066,224.4300890182495L330.2847090393066,210.2376890182495L315.92660903930664,220.4693890182495Z" fill="#715A00" fill-opacity="1"/><path d="M310.92660903930664,217.89278901824952L310.92660903930664,244.36448901824951L335.2847090393066,227.00668901824952L335.2847090393066,200.53498901824952L310.92660903930664,217.89278901824952ZM315.92660903930664,234.66178901824952L315.92660903930664,220.4693890182495L325.28467903930664,213.80073901824952L330.2847090393066,210.2376890182495L330.2847090393066,224.4300890182495L315.92660903930664,234.66178901824952Z" fill-rule="evenodd" fill="#8F7408" fill-opacity="1"/></g></g><g transform="matrix(-0.7071068286895752,0.7071070075035095,0.7071070075035095,0.7071068286895752,197.36393523254537,-81.75088795499414)"><g><path d="M216.0868762161255,200.00001525878906L226.29537621612548,220.18971525878905L205.8784362161255,220.18971525878905L216.0868762161255,200.00001525878906Z" fill="#715A00" fill-opacity="1"/><path d="M234.42637621612548,225.18971525878905L220.54897621612548,197.74387525878907L216.0868762161255,188.91911525878908L197.74747621612548,225.18971525878905L234.42637621612548,225.18971525878905ZM213.2855162161255,205.54045525878905L208.4065762161255,215.18971525878905L205.8784362161255,220.18971525878905L226.29537621612548,220.18971525878905L223.76727621612548,215.18971525878905L216.0868762161255,200.00001525878906L213.2855162161255,205.54045525878905Z" fill-rule="evenodd" fill="#8F7408" fill-opacity="1"/></g><g><path d="M220.09778785705566,265.8076582519531L220.09778785705566,280.00005825195313L234.45588785705567,269.76835825195315L234.45588785705567,255.57595825195312L220.09778785705566,265.8076582519531Z" fill="#715A00" fill-opacity="1"/><path d="M215.09778785705566,263.23105825195313L215.09778785705566,289.7027582519531L239.45588785705567,272.34495825195313L239.45588785705567,245.87325825195313L215.09778785705566,263.23105825195313ZM220.09778785705566,280.00005825195313L220.09778785705566,265.8076582519531L229.45585785705566,259.1390082519531L234.45588785705567,255.57595825195312L234.45588785705567,269.76835825195315L220.09778785705566,280.00005825195313Z" fill-rule="evenodd" fill="#8F7408" fill-opacity="1"/></g><g transform="matrix(-1,0,0,1,425.62784576416016,0)"><path d="M212.81392288208008,265.8076582519531L212.81392288208008,280.00005825195313L227.17202288208009,269.76835825195315L227.17202288208009,255.57595825195312L212.81392288208008,265.8076582519531Z" fill="#715A00" fill-opacity="1"/><path d="M207.81392288208008,263.23105825195313L207.81392288208008,289.7027582519531L232.17202288208009,272.34495825195313L232.17202288208009,245.87325825195313L207.81392288208008,263.23105825195313ZM212.81392288208008,280.00005825195313L212.81392288208008,265.8076582519531L222.17199288208008,259.1390082519531L227.17202288208009,255.57595825195312L227.17202288208009,269.76835825195315L212.81392288208008,280.00005825195313Z" fill-rule="evenodd" fill="#8F7408" fill-opacity="1"/></g><g><path d="M220.09778785705566,243.13852220458983L220.09778785705566,257.33092220458985L234.45588785705567,247.09922220458984L234.45588785705567,232.90682220458984L220.09778785705566,243.13852220458983Z" fill="#715A00" fill-opacity="1"/><path d="M215.09778785705566,240.56192220458985L215.09778785705566,267.03362220458985L239.45588785705567,249.67582220458985L239.45588785705567,223.20412220458985L215.09778785705566,240.56192220458985ZM220.09778785705566,257.33092220458985L220.09778785705566,243.13852220458983L229.45585785705566,236.46987220458985L234.45588785705567,232.90682220458984L234.45588785705567,247.09922220458984L220.09778785705566,257.33092220458985Z" fill-rule="evenodd" fill="#8F7408" fill-opacity="1"/></g><g transform="matrix(-1,0,0,1,425.62784576416016,0)"><path d="M212.81392288208008,243.13852220458983L212.81392288208008,257.33092220458985L227.17202288208009,247.09922220458984L227.17202288208009,232.90682220458984L212.81392288208008,243.13852220458983Z" fill="#715A00" fill-opacity="1"/><path d="M207.81392288208008,240.56192220458985L207.81392288208008,267.03362220458985L232.17202288208009,249.67582220458985L232.17202288208009,223.20412220458985L207.81392288208008,240.56192220458985ZM212.81392288208008,257.33092220458985L212.81392288208008,243.13852220458983L222.17199288208008,236.46987220458985L227.17202288208009,232.90682220458984L227.17202288208009,247.09922220458984L212.81392288208008,257.33092220458985Z" fill-rule="evenodd" fill="#8F7408" fill-opacity="1"/></g><g><path d="M220.09778785705566,220.4693890182495L220.09778785705566,234.66178901824952L234.45588785705567,224.4300890182495L234.45588785705567,210.2376890182495L220.09778785705566,220.4693890182495Z" fill="#715A00" fill-opacity="1"/><path d="M215.09778785705566,217.89278901824952L215.09778785705566,244.36448901824951L239.45588785705567,227.00668901824952L239.45588785705567,200.53498901824952L215.09778785705566,217.89278901824952ZM220.09778785705566,234.66178901824952L220.09778785705566,220.4693890182495L229.45585785705566,213.80073901824952L234.45588785705567,210.2376890182495L234.45588785705567,224.4300890182495L220.09778785705566,234.66178901824952Z" fill-rule="evenodd" fill="#8F7408" fill-opacity="1"/></g><g transform="matrix(-1,0,0,1,425.62784576416016,0)"><path d="M212.81392288208008,220.4693890182495L212.81392288208008,234.66178901824952L227.17202288208009,224.4300890182495L227.17202288208009,210.2376890182495L212.81392288208008,220.4693890182495Z" fill="#715A00" fill-opacity="1"/><path d="M207.81392288208008,217.89278901824952L207.81392288208008,244.36448901824951L232.17202288208009,227.00668901824952L232.17202288208009,200.53498901824952L207.81392288208008,217.89278901824952ZM212.81392288208008,234.66178901824952L212.81392288208008,220.4693890182495L222.17199288208008,213.80073901824952L227.17202288208009,210.2376890182495L227.17202288208009,224.4300890182495L212.81392288208008,234.66178901824952Z" fill-rule="evenodd" fill="#8F7408" fill-opacity="1"/></g></g><g><g><path d="M249.13838474121093,158L263.1146847412109,185.6094L235.16212474121093,185.6094L249.13838474121093,158Z" fill="#715A00" fill-opacity="1"/><path d="M271.24988474121096,190.6094L253.59938474121094,155.74178L249.13838474121093,146.9293L227.02691474121093,190.6094L271.24988474121096,190.6094ZM246.33638474121094,163.53533L235.16212474121093,185.6094L263.1146847412109,185.6094L260.5835847412109,180.6094L249.13838474121093,158L246.33638474121094,163.53533Z" fill-rule="evenodd" fill="#E6BA0B" fill-opacity="1"/></g><g><path d="M254.62962341308594,247.9918L254.62962341308594,267.3999L274.28702341308593,253.40800000000002L274.28702341308593,234L254.62962341308594,247.9918Z" fill="#715A00" fill-opacity="1"/><path d="M249.62962341308594,245.4135L249.62962341308594,277.096L279.28702341308593,255.9864L279.28702341308593,224.30382L249.62962341308594,245.4135ZM254.62962341308594,267.3999L254.62962341308594,247.9918L269.28702341308593,237.55892L274.28702341308593,234L274.28702341308593,253.40800000000002L259.62962341308594,263.8409L254.62962341308594,267.3999Z" fill-rule="evenodd" fill="#E6BA0B" fill-opacity="1"/></g><g transform="matrix(-1,0,0,1,489.3147888183594,0)"><path d="M244.6573944091797,247.9918L244.6573944091797,267.3999L264.3147944091797,253.40800000000002L264.3147944091797,234L244.6573944091797,247.9918Z" fill="#715A00" fill-opacity="1"/><path d="M239.6573944091797,245.4135L239.6573944091797,277.096L269.3147944091797,255.9864L269.3147944091797,224.30382L239.6573944091797,245.4135ZM244.6573944091797,267.3999L244.6573944091797,247.9918L259.3147944091797,237.55892L264.3147944091797,234L264.3147944091797,253.40800000000002L249.6573944091797,263.8409L244.6573944091797,267.3999Z" fill-rule="evenodd" fill="#E6BA0B" fill-opacity="1"/></g><g><path d="M254.62962341308594,216.9918L254.62962341308594,236.3999L274.28702341308593,222.40800000000002L274.28702341308593,203L254.62962341308594,216.9918Z" fill="#715A00" fill-opacity="1"/><path d="M249.62962341308594,214.4135L249.62962341308594,246.096L279.28702341308593,224.9864L279.28702341308593,193.30382L249.62962341308594,214.4135ZM254.62962341308594,236.3999L254.62962341308594,216.9918L269.28702341308593,206.55892L274.28702341308593,203L274.28702341308593,222.40800000000002L259.62962341308594,232.8409L254.62962341308594,236.3999Z" fill-rule="evenodd" fill="#E6BA0B" fill-opacity="1"/></g><g transform="matrix(-1,0,0,1,489.3147888183594,0)"><path d="M244.6573944091797,216.9918L244.6573944091797,236.3999L264.3147944091797,222.40800000000002L264.3147944091797,203L244.6573944091797,216.9918Z" fill="#715A00" fill-opacity="1"/><path d="M239.6573944091797,214.4135L239.6573944091797,246.096L269.3147944091797,224.9864L269.3147944091797,193.30382L239.6573944091797,214.4135ZM244.6573944091797,236.3999L244.6573944091797,216.9918L259.3147944091797,206.55892L264.3147944091797,203L264.3147944091797,222.40800000000002L249.6573944091797,232.8409L244.6573944091797,236.3999Z" fill-rule="evenodd" fill="#E6BA0B" fill-opacity="1"/></g><g><path d="M254.62962341308594,185.9918L254.62962341308594,205.3999L274.28702341308593,191.40800000000002L274.28702341308593,172L254.62962341308594,185.9918Z" fill="#715A00" fill-opacity="1"/><path d="M249.62962341308594,183.4135L249.62962341308594,215.096L279.28702341308593,193.9864L279.28702341308593,162.30382L249.62962341308594,183.4135ZM254.62962341308594,205.3999L254.62962341308594,185.9918L269.28702341308593,175.55892L274.28702341308593,172L274.28702341308593,191.40800000000002L259.62962341308594,201.8409L254.62962341308594,205.3999Z" fill-rule="evenodd" fill="#E6BA0B" fill-opacity="1"/></g><g transform="matrix(-1,0,0,1,489.3147888183594,0)"><path d="M244.6573944091797,185.9918L244.6573944091797,205.3999L264.3147944091797,191.40800000000002L264.3147944091797,172L244.6573944091797,185.9918Z" fill="#715A00" fill-opacity="1"/><path d="M239.6573944091797,183.4135L239.6573944091797,215.096L269.3147944091797,193.9864L269.3147944091797,162.30382L239.6573944091797,183.4135ZM244.6573944091797,205.3999L244.6573944091797,185.9918L259.3147944091797,175.55892L264.3147944091797,172L264.3147944091797,191.40800000000002L249.6573944091797,201.8409L244.6573944091797,205.3999Z" fill-rule="evenodd" fill="#E6BA0B" fill-opacity="1"/></g></g><g><path d="M113.7935,371.4824L109.814,379.3193L109.13040000000001,378.9287Q109.1548,378.6846,109.1548,378.5381Q109.1548,377.70799999999997,107.7388,376.7559Q103.3931,373.7285,97.5337,373.7285Q94.9458,373.7285,92.9683,374.3633Q91.5278,374.8516,90.6367,375.8281Q89.7456,376.8047,89.7456,377.9521Q89.7456,379.832,92.0161,380.5156Q93.188,380.8574,97.0454,381.248L100.8784,381.6387Q104.2964,382.0049,106.4082,382.6396Q108.52,383.2744,110.1558,384.4219Q111.8159,385.6182,112.7803,387.5713Q113.74459999999999,389.5244,113.74459999999999,391.7461Q113.74459999999999,395.2617,111.47409999999999,397.9961Q109.4233,400.4863,105.10210000000001,401.6826Q101.8794,402.5859,98.19290000000001,402.5859Q91.5767,402.5859,85.13135,399.4121Q83.76416,398.77729999999997,83.49561,398.77729999999997Q83.17822,398.77729999999997,82.49463,399.3145L81.78662,398.9482L85.3999,390.7695L86.10791,391.1113Q86.10791,391.3311,86.10791,391.4287Q86.10791,392.52729999999997,87.15771,393.4551Q88.74463,394.8711,92.0649,395.8965Q95.3853,396.9219,98.3638,396.9219Q101.6108,396.9219,103.9058,395.8232Q105.1753,395.2129,105.93209999999999,394.1997Q106.689,393.1865,106.689,392.0879Q106.689,390.4277,104.9067,389.7197Q103.66159999999999,389.2314,99.8774,388.8164L96.1177,388.4258Q92.3335,388.0352,90.771,387.6812Q89.2085,387.3271,87.646,386.5459Q85.42432,385.4473,84.15479,383.25Q83.00731999999999,381.2725,83.00731999999999,378.709Q83.00731999999999,374.4854,85.9126,371.7266Q89.7212,368.0889,97.33840000000001,368.0889Q100.53659999999999,368.0889,103.2954,368.7358Q106.05420000000001,369.3828,110.1802,371.1162Q111.59620000000001,371.6777,111.9136,371.6777Q112.4263,371.6777,113.10990000000001,371.1162L113.7935,371.4824ZM137.1089,368.0889Q145.8247,368.0889,150.9272,372.8008Q156.3228,377.7324,156.3228,385.5449Q156.3228,390.3301,153.73489999999998,394.4805Q148.6812,402.5859,137.1577,402.5859Q128.5151,402.5859,123.4126,397.874Q120.6782,395.3594,119.2622,391.8438Q118.0171,388.7432,118.0171,385.3252Q118.0171,380.3203,120.5806,376.1699Q125.4878,368.2354,137.1089,368.0889ZM137.1333,373.7285Q132.3726,373.7285,129.1987,376.5605Q125.439,379.9053,125.439,385.3252Q125.439,390.7451,129.1987,394.08979999999997Q132.3726,396.9219,137.1821,396.9219Q141.9917,396.9219,145.1411,394.08979999999997Q147.02100000000002,392.4053,148.022,389.9639Q148.90089999999998,387.791,148.90089999999998,385.4717Q148.90089999999998,379.8076,145.1411,376.5605Q141.9429,373.7773,137.1333,373.7285ZM163.1343,399.4365L163.1343,371.2139Q163.1343,370.4814,162.79250000000002,370.0908Q162.45069999999998,369.7002,161.5718,369.4561L161.5718,368.6748L171.9722,368.6748L171.9722,369.4561Q171.0933,369.6758,170.7515,370.0786Q170.4097,370.4814,170.4097,371.2139L170.4097,399.4365Q170.4097,400.1934,170.7637,400.5962Q171.1177,400.999,171.9722,401.2188L171.9722,402L161.5718,402L161.5718,401.2188Q162.45069999999998,400.9746,162.79250000000002,400.584Q163.1343,400.1934,163.1343,399.4365ZM186.792,396.5068L207.275,396.5068Q208.032,396.5068,208.422,396.165Q208.813,395.8232,209.057,394.9443L209.838,394.9443L209.838,403.5625L209.057,403.5625Q208.813,402.6836,208.422,402.3418Q208.032,402,207.275,402L177.9536,402L177.9536,401.2188Q178.83249999999998,400.9746,179.17430000000002,400.584Q179.51600000000002,400.1934,179.51600000000002,399.4365L179.51600000000002,371.2383Q179.51600000000002,370.4814,179.17430000000002,370.0908Q178.83249999999998,369.7002,177.9536,369.4561L177.9536,368.6748L188.35399999999998,368.6748L188.35399999999998,369.4561Q187.475,369.6758,187.13299999999998,370.0786Q186.792,370.4814,186.792,371.2383L186.792,396.5068ZM255.517,384.5439Q261.132,386.668,261.132,392.4053Q261.132,396.9707,257.861,399.5586Q256.201,400.8525,254.016,401.42629999999997Q251.831,402,248.608,402L225.83,402L225.83,401.2188Q226.708,400.9746,227.05,400.584Q227.392,400.1934,227.392,399.4365L227.392,371.2383Q227.392,370.4814,227.05,370.0908Q226.708,369.7002,225.83,369.4561L225.83,368.6748L248.388,368.6748Q251.635,368.6748,253.613,369.1631Q255.59,369.6514,257.08000000000004,370.8232Q260.034,373.1426,260.034,377.5127Q260.034,382.39549999999997,255.517,384.5439ZM234.667,381.9316L247.436,381.9316Q250.341,381.9316,251.489,381.0771Q252.783,380.1006,252.783,378.0498Q252.783,375.9502,251.562,375.0591Q250.341,374.168,247.436,374.168L234.667,374.168L234.667,381.9316ZM234.667,396.5068L247.021,396.5068Q250.463,396.5068,251.977,395.5547Q253.71,394.4561,253.71,391.9658Q253.71,389.5,251.977,388.377Q250.488,387.4248,247.021,387.4248L234.667,387.4248L234.667,396.5068ZM300.048,371.2383L300.048,389.915Q300.048,395.2129,298.095,397.8496Q294.58000000000004,402.5859,283.56899999999996,402.5859Q275.61,402.5859,271.38599999999997,400.0225Q268.91999999999996,398.5332,267.96799999999996,395.9697Q267.041,393.4307,267.041,389.915L267.041,371.2383Q267.041,370.4814,266.699,370.0908Q266.35699999999997,369.7002,265.478,369.4561L265.478,368.6748L275.903,368.6748L275.903,369.4561Q275.024,369.6758,274.66999999999996,370.0786Q274.31600000000003,370.4814,274.31600000000003,371.2383L274.31600000000003,387.8643Q274.31600000000003,390.7451,274.63300000000004,392.1245Q274.951,393.5039,275.83000000000004,394.4316Q278.173,396.9219,283.837,396.9219Q289.526,396.9219,291.87,394.4316Q292.724,393.5039,293.04200000000003,392.1245Q293.35900000000004,390.7451,293.35900000000004,387.8643L293.35900000000004,371.2383Q293.35900000000004,370.4814,293.017,370.0908Q292.675,369.7002,291.796,369.4561L291.796,368.6748L301.611,368.6748L301.611,369.4561Q300.73199999999997,369.7002,300.39,370.0908Q300.048,370.4814,300.048,371.2383ZM308.496,399.4365L308.496,371.2383Q308.496,370.4814,308.154,370.0908Q307.812,369.7002,306.933,369.4561L306.933,368.6748L325.512,368.6748Q331.616,368.6748,334.887,370.0664Q339.575,372.0928,341.821,376.7559Q343.603,380.418,343.603,385.3252Q343.603,393.9434,338.305,398.46Q336.083,400.3643,333.105,401.1821Q330.126,402,325.512,402L306.933,402L306.933,401.2188Q307.812,400.9746,308.154,400.584Q308.496,400.1934,308.496,399.4365ZM315.77099999999996,396.5068L324.902,396.5068Q329.272,396.5068,331.469,395.3105Q336.181,392.7471,336.181,385.3252Q336.181,379.9541,333.642,377.0977Q332.226,375.5107,330.224,374.8394Q328.222,374.168,324.902,374.168L315.77099999999996,374.168L315.77099999999996,396.5068ZM350.415,399.4365L350.415,371.2383Q350.415,370.4814,350.073,370.0908Q349.731,369.7002,348.852,369.4561L348.852,368.6748L367.431,368.6748Q373.535,368.6748,376.806,370.0664Q381.494,372.0928,383.74,376.7559Q385.522,380.418,385.522,385.3252Q385.522,393.9434,380.224,398.46Q378.002,400.3643,375.024,401.1821Q372.045,402,367.431,402L348.852,402L348.852,401.2188Q349.731,400.9746,350.073,400.584Q350.415,400.1934,350.415,399.4365ZM357.69,396.5068L366.821,396.5068Q371.191,396.5068,373.388,395.3105Q378.1,392.7471,378.1,385.3252Q378.1,379.9541,375.561,377.0977Q374.145,375.5107,372.143,374.8394Q370.141,374.168,366.821,374.168L357.69,374.168L357.69,396.5068ZM407.031,388.0596L407.031,399.4365Q407.031,400.1934,407.385,400.584Q407.739,400.9746,408.618,401.2188L408.618,402L398.144,402L398.144,401.2188Q399.023,400.9746,399.389,400.584Q399.755,400.1934,399.755,399.4365L399.755,388.0596L388.989,372.8984Q387.597,370.9453,386.804,370.2739Q386.01,369.6025,384.912,369.4561L384.912,368.6748L398.071,368.6748L398.071,369.4561Q396.435,369.7246,396.435,370.9697Q396.435,371.4092,397.436,372.8984L403.442,381.834L409.619,372.8984Q410.62,371.458,410.62,370.9453Q410.62,370.3838,410.18,369.981Q409.741,369.5781,408.984,369.4561L408.984,368.6748L421.875,368.6748L421.875,369.4561Q420.776,369.6025,419.982,370.2739Q419.189,370.9453,417.797,372.8984L407.031,388.0596Z" fill="#9E9E9E" fill-opacity="1"/></g><g><rect x="246.99998474121094" y="268" width="6" height="27" rx="0" fill="#E6BE21" fill-opacity="1"/></g></g></svg>