<svg xmlns="http://www.w3.org/2000/svg" xmlns:xlink="http://www.w3.org/1999/xlink" width="804.999939" height="805.000000" fill="none" customframe="#000000" viewBox="0 0 804.999939 805.000000" data-app="Xyris">
    <defs>
    </defs>
    <g id="SoilBuddyLogoNoBG" transform-origin="center" style="transform-box: fill-box;">
        <g id="Group 20">
            <ellipse id="Oval 10" rx="295.510162" ry="295.510132" cx="402.499847" cy="405.765259" stroke="rgb(230,179,11)" stroke-width="5">
            </ellipse>
        </g>
        <g id="Group 21">
            <circle id="Oval 11" cx="402.499939" cy="402.5" r="400" stroke="rgb(230,179,11)" stroke-width="5">
            </circle>
        </g>
        <g id="Group 22" transform-origin="center" style="transform-box: fill-box;">
            <path id="Vector 3" d="M756.74 495.427C756.172 497.654 755.583 499.875 754.973 502.089L723.493 493.416C724.048 491.398 724.584 489.375 725.102 487.346L756.74 495.427ZM722.973 581.112C721.881 583.106 720.77 585.09 719.643 587.065L691.293 570.862C692.323 569.062 693.335 567.252 694.33 565.432L722.973 581.112ZM668.936 655.767C667.373 657.439 665.794 659.095 664.198 660.737L640.779 637.981C642.233 636.483 643.673 634.973 645.099 633.452L668.936 655.767ZM597.912 714.644C595.981 715.869 594.039 717.077 592.084 718.268L575.101 690.376C576.879 689.294 578.649 688.195 580.41 687.078L597.912 714.644ZM514.51 753.824C512.355 754.523 510.193 755.2 508.025 755.855L498.562 724.603C500.539 724.004 502.508 723.388 504.469 722.755L514.51 753.824ZM423.568 770.869C421.323 770.999 419.078 771.109 416.831 771.199L415.545 738.568C417.591 738.488 419.635 738.389 421.677 738.271L423.568 770.869ZM332.134 764.616C329.914 764.178 327.7 763.721 325.49 763.244L332.394 731.329C334.409 731.765 336.425 732.18 338.444 732.577L332.134 764.616ZM244.775 735.561C242.708 734.568 240.652 733.557 238.607 732.528L253.291 703.362C255.157 704.3 257.029 705.221 258.909 706.124L244.775 735.561ZM167.431 685.543C165.682 684.069 163.947 682.579 162.226 681.073L183.733 656.502C185.301 657.875 186.882 659.232 188.474 660.573L167.431 685.543ZM104.868 617.595C103.551 615.743 102.251 613.877 100.968 611.999L127.929 593.579C129.098 595.29 130.282 596.989 131.482 598.676L104.868 617.595ZM61.3525 536.498C60.5288 534.356 59.7251 532.207 58.9415 530.049L89.6323 518.902C90.3466 520.867 91.0791 522.826 91.8299 524.779L61.3525 536.498ZM39.2422 446.64C38.9778 444.359 38.7347 442.077 38.5128 439.793L71.013 436.635C71.2153 438.719 71.4369 440.8 71.6779 442.879L39.2422 446.64ZM40.0127 355.44C40.3194 353.136 40.6478 350.836 40.998 348.539L73.2782 353.459C72.9591 355.553 72.6598 357.649 72.3802 359.749L40.0127 355.44ZM63.6097 266.04C64.4582 263.939 65.326 261.847 66.213 259.762L96.2593 272.547C95.4508 274.446 94.66 276.354 93.8867 278.268L63.6097 266.04ZM108.471 185.691C109.822 183.855 111.191 182.032 112.577 180.222L138.505 200.069C137.243 201.719 135.996 203.379 134.764 205.052L108.471 185.691ZM172.181 118.786C173.951 117.345 175.735 115.92 177.532 114.511L197.674 140.212C196.038 141.494 194.413 142.792 192.8 144.106L172.181 118.786ZM250.357 70.0831C252.426 69.1323 254.504 68.201 256.59 67.2891L269.667 97.2093C267.767 98.0397 265.875 98.8878 263.991 99.7536L250.357 70.0831ZM338.205 42.5073C340.513 42.0933 342.824 41.7017 345.139 41.3325L350.283 73.5778C348.175 73.914 346.071 74.2705 343.97 74.6473L338.205 42.5073ZM429.661 37.8003C431.933 37.9702 434.204 38.1615 436.472 38.374L433.426 70.8846C431.36 70.6911 429.293 70.517 427.225 70.3623L429.661 37.8003ZM520.342 56.3781C522.503 57.1176 524.658 57.8772 526.807 58.6571L515.662 89.35C513.708 88.6399 511.745 87.9483 509.775 87.2752L520.342 56.3781ZM603.101 96.9797C604.995 98.2279 606.876 99.4933 608.746 100.776L590.278 127.703C588.573 126.534 586.859 125.382 585.135 124.246L603.101 96.9797ZM673.122 157.044C674.657 158.74 676.176 160.451 677.68 162.177L653.063 183.63C651.694 182.058 650.309 180.5 648.91 178.954L673.122 157.044ZM725.87 232.551C726.932 234.57 727.975 236.598 728.998 238.637L699.822 253.297C698.889 251.439 697.937 249.59 696.969 247.749L725.87 232.551ZM758.219 318.831C758.744 321.046 759.249 323.264 759.734 325.487L727.832 332.447C727.39 330.421 726.93 328.399 726.451 326.381L758.219 318.831ZM768.214 404.133C768.214 406.344 768.195 408.556 768.155 410.768L735.506 410.18C735.543 408.164 735.561 406.148 735.561 404.133L768.214 404.133Z" fill="rgb(230,179,11)" fill-rule="nonzero">
            </path>
            <animateTransform attributeName="transform" type="rotate" begin="-0.00001" dur="10.014452612153672" keyTimes="0; 1" values="0;360" fill="freeze" additive="sum" keySplines="0 0 1 1" repeatCount="indefinite">
            </animateTransform>
        </g>
        <g id="Group 23">
            <g id="Group 24">
                <path id="Vector 4" d="M33.3337 0L66.6675 65.9255L0 65.9255L33.3337 0Z" fill="rgb(113,90,0)" fill-rule="nonzero" transform="matrix(0.707107,0.707107,-0.707107,0.707107,588.025,380.454)">
                </path>
                <path id="Vector 5" d="M119.768 118.435L74.4538 28.8156L59.8837 0L0 118.435L119.768 118.435ZM50.7364 54.2738L34.8052 85.7816L26.5501 102.108L93.2176 102.108L84.9627 85.7816L59.8837 36.1825L50.7364 54.2738Z" fill="rgb(143,116,8)" fill-rule="evenodd" transform="matrix(0.707107,0.707107,-0.707107,0.707107,594.836,336.096)">
                </path>
            </g>
            <g id="Group 25">
                <path id="Vector 6" d="M0 33.4096L0 79.7522L46.8836 46.3426L46.8836 0L0 33.4096Z" fill="rgb(113,90,0)" fill-rule="nonzero" transform="matrix(0.707107,0.707107,-0.707107,0.707106,492.536,541.606)">
                </path>
                <path id="Vector 7" d="M0 56.6785L0 143.117L79.5366 86.4382L79.5366 0L0 56.6785ZM16.3265 111.434L16.3265 65.0919L46.8835 43.3167L63.2101 31.6823L63.2101 78.0249L16.3265 111.434Z" fill="rgb(143,116,8)" fill-rule="evenodd" transform="matrix(0.707107,0.707107,-0.707107,0.707107,503.394,507.659)">
                </path>
            </g>
            <g id="Group 26">
                <path id="Vector 8" d="M0 33.4096L0 79.7522L46.8836 46.3426L46.8836 0L0 33.4096Z" fill="rgb(113,90,0)" fill-rule="nonzero" transform="matrix(-0.707107,-0.707107,-0.707107,0.707107,475.718,524.788)">
                </path>
                <path id="Vector 9" d="M0 56.6785L0 143.117L79.5366 86.4382L79.5366 0L0 56.6785ZM16.3265 111.434L16.3265 65.0919L46.8835 43.3167L63.2101 31.6823L63.2101 78.0249L16.3265 111.434Z" fill="rgb(143,116,8)" fill-rule="evenodd" transform="matrix(-0.707107,-0.707107,-0.707107,0.707107,509.665,513.93)">
                </path>
            </g>
            <g id="Group 27">
                <path id="Vector 10" d="M0 33.4096L0 79.7521L46.8836 46.3425L46.8836 0L0 33.4096Z" fill="rgb(113,90,0)" fill-rule="nonzero" transform="matrix(0.707106,0.707107,-0.707106,0.707107,544.877,489.265)">
                </path>
                <path id="Vector 11" d="M0 56.6785L0 143.117L79.5366 86.4382L79.5366 0L0 56.6785ZM16.3265 111.435L16.3265 65.0919L46.8835 43.3168L63.2101 31.6823L63.2101 78.0249L16.3265 111.435Z" fill="rgb(143,116,8)" fill-rule="evenodd" transform="matrix(0.707107,0.707107,-0.707107,0.707107,555.736,455.318)">
                </path>
            </g>
            <g id="Group 28">
                <path id="Vector 12" d="M0 33.4096L0 79.7522L46.8836 46.3425L46.8836 0L0 33.4096Z" fill="rgb(113,90,0)" fill-rule="nonzero" transform="matrix(-0.707107,-0.707107,-0.707107,0.707107,528.06,472.447)">
                </path>
                <path id="Vector 13" d="M0 56.6786L0 143.117L79.5366 86.4383L79.5366 0L0 56.6786ZM16.3265 111.435L16.3265 65.0919L46.8835 43.3168L63.2101 31.6823L63.2101 78.0249L16.3265 111.435Z" fill="rgb(143,116,8)" fill-rule="evenodd" transform="matrix(-0.707107,-0.707107,-0.707107,0.707107,562.007,461.589)">
                </path>
            </g>
            <g id="Group 29">
                <path id="Vector 14" d="M0 33.4097L0 79.7522L46.8836 46.3425L46.8836 0L0 33.4097Z" fill="rgb(113,90,0)" fill-rule="nonzero" transform="matrix(0.707107,0.707106,-0.707107,0.707106,597.218,436.924)">
                </path>
                <path id="Vector 15" d="M0 56.6785L0 143.117L79.5367 86.4382L79.5367 0L0 56.6785ZM16.3265 111.434L16.3265 65.0919L46.8835 43.3167L63.2101 31.6823L63.2101 78.0248L16.3265 111.434Z" fill="rgb(143,116,8)" fill-rule="evenodd" transform="matrix(0.707107,0.707107,-0.707107,0.707106,608.077,402.977)">
                </path>
            </g>
            <g id="Group 30">
                <path id="Vector 16" d="M0 33.4096L0 79.7521L46.8835 46.3425L46.8835 0L0 33.4096Z" fill="rgb(113,90,0)" fill-rule="nonzero" transform="matrix(-0.707107,-0.707107,-0.707107,0.707107,580.4,420.106)">
                </path>
                <path id="Vector 17" d="M0 56.6785L0 143.117L79.5366 86.4382L79.5366 0L0 56.6785ZM16.3265 111.434L16.3265 65.0919L46.8835 43.3167L63.2101 31.6823L63.2101 78.0248L16.3265 111.434Z" fill="rgb(143,116,8)" fill-rule="evenodd" transform="matrix(-0.707107,-0.707107,-0.707107,0.707107,614.348,409.248)">
                </path>
            </g>
        </g>
        <g id="Group 31">
            <g id="Group 32">
                <path id="Vector 18" d="M33.3337 0L66.6676 65.9255L0 65.9255L33.3337 0Z" fill="rgb(113,90,0)" fill-rule="nonzero" transform="matrix(-0.707107,0.707107,0.707107,0.707107,217.054,380.454)">
                </path>
                <path id="Vector 19" d="M119.768 118.435L74.4539 28.8156L59.8838 0L0 118.435L119.768 118.435ZM50.7365 54.2738L34.8052 85.7816L26.5501 102.108L93.2177 102.108L84.9626 85.7816L59.8838 36.1825L50.7365 54.2738Z" fill="rgb(143,116,8)" fill-rule="evenodd" transform="matrix(-0.707107,0.707107,0.707107,0.707107,210.243,336.096)">
                </path>
            </g>
            <g id="Group 33">
                <path id="Vector 20" d="M0 33.4096L0 79.7521L46.8835 46.3425L46.8835 0L0 33.4096Z" fill="rgb(113,90,0)" fill-rule="nonzero" transform="matrix(-0.707107,0.707107,0.707107,0.707107,312.543,541.606)">
                </path>
                <path id="Vector 21" d="M0 56.6785L0 143.117L79.5367 86.4382L79.5367 0L0 56.6785ZM16.3265 111.434L16.3265 65.0919L46.8835 43.3167L63.2101 31.6823L63.2101 78.0249L16.3265 111.434Z" fill="rgb(143,116,8)" fill-rule="evenodd" transform="matrix(-0.707107,0.707107,0.707107,0.707107,301.685,507.659)">
                </path>
            </g>
            <g id="Group 34">
                <path id="Vector 22" d="M0 33.4096L0 79.7522L46.8836 46.3426L46.8836 0L0 33.4096Z" fill="rgb(113,90,0)" fill-rule="nonzero" transform="matrix(0.707107,-0.707107,0.707107,0.707107,329.361,524.788)">
                </path>
                <path id="Vector 23" d="M0 56.6785L0 143.117L79.5367 86.4382L79.5367 0L0 56.6785ZM16.3265 111.434L16.3265 65.0919L46.8835 43.3167L63.2102 31.6823L63.2102 78.0249L16.3265 111.434Z" fill="rgb(143,116,8)" fill-rule="evenodd" transform="matrix(0.707107,-0.707107,0.707107,0.707107,295.414,513.93)">
                </path>
            </g>
            <g id="Group 35">
                <path id="Vector 24" d="M0 33.4096L0 79.7522L46.8836 46.3425L46.8836 0L0 33.4096Z" fill="rgb(113,90,0)" fill-rule="nonzero" transform="matrix(-0.707107,0.707107,0.707107,0.707107,260.202,489.265)">
                </path>
                <path id="Vector 25" d="M0 56.6785L0 143.117L79.5367 86.4382L79.5367 0L0 56.6785ZM16.3265 111.435L16.3265 65.0919L46.8835 43.3168L63.2101 31.6823L63.2101 78.0249L16.3265 111.435Z" fill="rgb(143,116,8)" fill-rule="evenodd" transform="matrix(-0.707107,0.707107,0.707107,0.707107,249.344,455.318)">
                </path>
            </g>
            <g id="Group 36">
                <path id="Vector 26" d="M0 33.4096L0 79.7522L46.8836 46.3425L46.8836 0L0 33.4096Z" fill="rgb(113,90,0)" fill-rule="nonzero" transform="matrix(0.707107,-0.707107,0.707107,0.707107,277.02,472.447)">
                </path>
                <path id="Vector 27" d="M0 56.6785L0 143.117L79.5367 86.4382L79.5367 0L0 56.6785ZM16.3265 111.435L16.3265 65.0919L46.8835 43.3168L63.2101 31.6823L63.2101 78.0249L16.3265 111.435Z" fill="rgb(143,116,8)" fill-rule="evenodd" transform="matrix(0.707107,-0.707107,0.707107,0.707107,243.073,461.589)">
                </path>
            </g>
            <g id="Group 37">
                <path id="Vector 28" d="M0 33.4096L0 79.7522L46.8836 46.3425L46.8836 0L0 33.4096Z" fill="rgb(113,90,0)" fill-rule="nonzero" transform="matrix(-0.707107,0.707106,0.707107,0.707106,207.861,436.924)">
                </path>
                <path id="Vector 29" d="M0 56.6785L0 143.117L79.5366 86.4382L79.5366 0L0 56.6785ZM16.3265 111.434L16.3265 65.0919L46.8835 43.3167L63.2101 31.6823L63.2101 78.0248L16.3265 111.434Z" fill="rgb(143,116,8)" fill-rule="evenodd" transform="matrix(-0.707107,0.707107,0.707107,0.707107,197.003,402.977)">
                </path>
            </g>
            <g id="Group 38">
                <path id="Vector 30" d="M0 33.4096L0 79.7522L46.8836 46.3425L46.8836 0L0 33.4096Z" fill="rgb(113,90,0)" fill-rule="nonzero" transform="matrix(0.707107,-0.707107,0.707107,0.707107,224.679,420.106)">
                </path>
                <path id="Vector 31" d="M0 56.6785L0 143.117L79.5367 86.4382L79.5367 0L0 56.6785ZM16.3265 111.434L16.3265 65.0919L46.8835 43.3167L63.2101 31.6823L63.2101 78.0248L16.3265 111.434Z" fill="rgb(143,116,8)" fill-rule="evenodd" transform="matrix(0.707107,-0.707107,0.707107,0.707107,190.732,409.248)">
                </path>
            </g>
        </g>
        <g id="Group 39">
            <g id="Group 40">
                <path id="Vector 32" d="M399.686 226.173L445.323 316.327L354.05 316.327L399.686 226.173Z" fill="rgb(113,90,0)" fill-rule="nonzero">
                </path>
                <path id="Vector 33" d="M471.887 332.653L414.253 218.8L399.686 190.024L327.486 332.653L471.887 332.653ZM390.537 244.248L354.05 316.327L445.323 316.327L437.059 300L399.686 226.173L390.537 244.248Z" fill="rgb(230,186,11)" fill-rule="evenodd">
                </path>
            </g>
            <g id="Group 41">
                <path id="Vector 34" d="M417.617 520.024L417.617 583.398L481.804 537.71L481.804 474.337L417.617 520.024Z" fill="rgb(113,90,0)" fill-rule="nonzero">
                </path>
                <path id="Vector 35" d="M401.29 511.605L401.29 615.058L498.131 546.129L498.131 442.676L401.29 511.605ZM417.617 583.397L417.617 520.024L465.478 485.957L481.804 474.337L481.804 537.71L433.944 571.776L417.617 583.397Z" fill="rgb(230,186,11)" fill-rule="evenodd">
                </path>
            </g>
            <g id="Group 42">
                <path id="Vector 36" d="M0 45.6875L0 109.061L64.1874 63.373L64.1874 0L0 45.6875Z" fill="rgb(113,90,0)" fill-rule="nonzero" transform="matrix(-1,0,0,1,385.055,474.337)">
                </path>
                <path id="Vector 37" d="M0 68.9296L0 172.383L96.8404 103.453L96.8404 0L0 68.9296ZM16.3265 140.722L16.3265 77.3486L64.1874 43.282L80.5139 31.661L80.5139 95.0341L32.6531 129.101L16.3265 140.722Z" fill="rgb(230,186,11)" fill-rule="evenodd" transform="matrix(-1,0,0,1,401.381,442.676)">
                </path>
            </g>
            <g id="Group 43">
                <path id="Vector 38" d="M417.617 418.8L417.617 482.173L481.804 436.485L481.804 373.112L417.617 418.8Z" fill="rgb(113,90,0)" fill-rule="nonzero">
                </path>
                <path id="Vector 39" d="M401.29 410.381L401.29 513.834L498.131 444.904L498.131 341.451L401.29 410.381ZM417.617 482.173L417.617 418.8L465.478 384.733L481.804 373.112L481.804 436.485L433.944 470.552L417.617 482.173Z" fill="rgb(230,186,11)" fill-rule="evenodd">
                </path>
            </g>
            <g id="Group 44">
                <path id="Vector 40" d="M0 45.6875L0 109.061L64.1874 63.3731L64.1874 0L0 45.6875Z" fill="rgb(113,90,0)" fill-rule="nonzero" transform="matrix(-1,0,0,1,385.055,373.112)">
                </path>
                <path id="Vector 41" d="M0 68.9296L0 172.383L96.8404 103.453L96.8404 0L0 68.9296ZM16.3265 140.722L16.3265 77.3485L64.1874 43.2819L80.5139 31.661L80.5139 95.0341L32.6531 129.101L16.3265 140.722Z" fill="rgb(230,186,11)" fill-rule="evenodd" transform="matrix(-1,0,0,1,401.381,341.451)">
                </path>
            </g>
            <g id="Group 45">
                <path id="Vector 42" d="M417.617 317.575L417.617 380.949L481.804 335.261L481.804 271.888L417.617 317.575Z" fill="rgb(113,90,0)" fill-rule="nonzero">
                </path>
                <path id="Vector 43" d="M401.29 309.156L401.29 412.609L498.131 343.68L498.131 240.227L401.29 309.156ZM417.617 380.949L417.617 317.575L465.478 283.509L481.804 271.888L481.804 335.261L433.944 369.327L417.617 380.949Z" fill="rgb(230,186,11)" fill-rule="evenodd">
                </path>
            </g>
            <g id="Group 46">
                <path id="Vector 44" d="M0 45.6875L0 109.061L64.1874 63.3731L64.1874 0L0 45.6875Z" fill="rgb(113,90,0)" fill-rule="nonzero" transform="matrix(-1,0,0,1,385.055,271.888)">
                </path>
                <path id="Vector 45" d="M0 68.9296L0 172.383L96.8404 103.453L96.8404 0L0 68.9296ZM16.3265 140.722L16.3265 77.3485L64.1874 43.2819L80.5139 31.661L80.5139 95.0341L32.6531 129.101L16.3265 140.722Z" fill="rgb(230,186,11)" fill-rule="evenodd" transform="matrix(-1,0,0,1,401.381,240.227)">
                </path>
            </g>
        </g>
        <g id="Group 48">
            <rect id="Rectangle 47" width="19.591787" height="88.163246" x="392.703918" y="585.356934" fill="rgb(230,190,33)">
            </rect>
        </g>
    </g>
</svg>
